<svg width="28" height="34" viewBox="0 0 28 34" fill="none" xmlns="http://www.w3.org/2000/svg">
<path fill-rule="evenodd" clip-rule="evenodd" d="M28 14C28 21.732 21.732 34 14 34C6.26801 34 0 21.732 0 14C0 6.26801 6.26801 0 14 0C21.732 0 28 6.26801 28 14ZM9.03909 15.8533C10.7382 17.576 12.5289 22.1849 10.8061 23.884C9.08339 25.5832 4.49964 23.7292 2.80049 22.0064C1.10134 20.2837 1.13051 16.0518 2.85326 14.3527C4.576 12.6535 7.33994 14.1305 9.03909 15.8533ZM17.1193 23.884C15.3965 22.1849 17.1872 17.576 18.8863 15.8533C20.5855 14.1305 23.3494 12.6535 25.0722 14.3527C26.7949 16.0518 26.8241 20.2837 25.1249 22.0064C23.4258 23.7292 18.842 25.5832 17.1193 23.884Z" fill="white"/>
</svg>
