<svg width="163" height="34" viewBox="0 0 163 34" fill="none" xmlns="http://www.w3.org/2000/svg">
<path d="M19.7851 22.1637V23.3174C18.8464 26.7468 14.945 29.8145 9.96333 29.8145C4.22655 29.8197 0 26.1385 0 20.3598C0 14.5811 4.22655 10.8999 9.96857 10.8999C14.7352 10.8999 18.8517 13.9309 19.7903 17.397V18.5507H13.4348C12.8579 17.3236 11.5942 16.6 9.96857 16.6C7.65603 16.6 6.14055 18.0053 6.14055 20.3546C6.14055 22.7038 7.65603 24.1092 9.96857 24.1092C11.5942 24.1092 12.8579 23.3855 13.4348 22.1585H19.7903L19.7851 22.1637Z" fill="#A9C600"/>
<path d="M23.7549 4.10925H29.822V13.2073C31.1592 11.7653 33.0365 10.8948 35.2022 10.8948C40.724 10.8948 42.5331 15.0479 42.5331 20.0296V29.3794H36.466V20.0978C36.466 18.1103 35.2756 16.5949 33.3616 16.5949C31.1959 16.5949 29.8954 17.9321 29.822 20.1712V29.3794H23.7549V4.10925Z" fill="#A9C600"/>
<path d="M52.8529 20.6118C52.8529 22.5992 54.0433 24.1147 55.9573 24.1147C58.1597 24.1147 59.4969 22.7094 59.4969 20.3601V11.3302H65.564V29.3848H59.4969V27.5075C58.123 28.9863 56.2824 29.82 54.1167 29.82C48.5897 29.82 46.7858 25.6669 46.7858 20.6852V11.3302H52.8529V20.6118Z" fill="#A9C600"/>
<path d="M89.0302 29.3846H82.9631V27.6856C81.5577 29.0595 79.7119 29.8146 77.5829 29.8146C72.9263 29.8146 69.5283 26.1334 69.5283 20.3547C69.5283 14.576 72.9211 10.8948 77.5829 10.8948C79.7119 10.8948 81.5525 11.6919 82.9631 13.0605V4.10925H89.0302V29.3846ZM75.6689 20.36C75.6689 22.7092 77.1476 24.1146 79.4235 24.1146C81.6993 24.1146 83.1781 22.7092 83.1781 20.36C83.1781 18.0107 81.6993 16.6054 79.4235 16.6054C77.1476 16.6054 75.6689 18.0107 75.6689 20.36Z" fill="#A9C600"/>
<path d="M92.9945 20.3598C92.9945 14.5811 97.2211 10.8999 102.963 10.8999C108.705 10.8999 112.932 14.5811 112.932 20.3598C112.932 26.1385 108.705 29.8197 102.963 29.8197C97.2211 29.8197 92.9945 26.1385 92.9945 20.3598ZM99.1351 20.3598C99.1351 22.7091 100.651 24.1144 102.963 24.1144C105.276 24.1144 106.791 22.7091 106.791 20.3598C106.791 18.0106 105.276 16.6052 102.963 16.6052C100.651 16.6052 99.1351 18.0106 99.1351 20.3598Z" fill="#A9C600"/>
<path d="M143.063 20.3598C143.063 14.5811 147.289 10.8999 153.031 10.8999C158.773 10.8999 163 14.5811 163 20.3598C163 26.1385 158.773 29.8197 153.031 29.8197C147.289 29.8197 143.063 26.1385 143.063 20.3598ZM149.203 20.3598C149.203 22.7091 150.719 24.1144 153.031 24.1144C155.344 24.1144 156.859 22.7091 156.859 20.3598C156.859 18.0106 155.344 16.6052 153.031 16.6052C150.719 16.6052 149.203 18.0106 149.203 20.3598Z" fill="#A9C600"/>
<path d="M119.025 31.3039C119.502 27.2923 119.974 23.286 120.451 19.2745C120.845 15.9551 121.102 12.3421 122.706 9.3426C123.786 7.32896 125.48 5.51459 127.777 4.96398C129.985 4.43435 132.958 4.97971 134.237 7.0353C135.952 9.77784 134.348 13.4066 133.094 15.9603C132.302 17.5755 131.364 19.5996 129.093 19.652C128.485 19.6678 127.394 19.4056 127.19 18.3935C127.022 17.5387 127.384 16.9042 127.929 16.4795C129.822 15.0112 133 15.5251 134.41 17.6594C136.073 20.1817 136.796 24.4711 134.447 26.7679C132.565 28.6138 129.675 29.2378 127.195 28.7239C124.484 28.1576 123.32 32.3212 126.046 32.8928C129.864 33.6898 133.807 32.8875 136.849 30.3967C140.535 27.3815 140.855 22.4575 139.392 18.189C137.808 13.5744 133.881 10.6221 128.894 11.5293C125.213 12.2005 122.276 15.2524 122.953 19.1486C123.692 23.4014 128.605 24.9588 132.192 23.265C135.622 21.6447 137.352 17.6331 138.516 14.2666C139.99 10.0138 139.308 4.75423 135.318 2.14803C131.872 -0.101583 127.011 -0.0806075 123.556 2.12706C119.833 4.50777 117.882 8.6137 117.032 12.8193C115.81 18.8759 115.428 25.1738 114.699 31.3039C114.562 32.4628 115.79 33.4643 116.859 33.4643C118.139 33.4643 118.883 32.468 119.02 31.3039H119.025Z" fill="#FF545B"/>
</svg>
