<svg width="70" height="37" viewBox="0 0 70 37" fill="none" xmlns="http://www.w3.org/2000/svg">
<path d="M9.40625 22.8594C9.09375 22.3594 8.71875 21.9688 8.28125 21.6875C7.875 21.375 7.45312 21.1562 7.01562 21.0312C6.57812 20.875 6.14062 20.7969 5.70312 20.7969C5.29688 20.7656 4.95312 20.7656 4.67188 20.7969C4.35938 20.8594 4.07812 20.7188 3.82812 20.375C3.57812 20.0312 3.39062 19.6406 3.26562 19.2031C3.17188 18.7344 3.125 18.2812 3.125 17.8438C3.15625 17.375 3.28125 17.0625 3.5 16.9062C3.875 16.5938 4.40625 16.2344 5.09375 15.8281C5.8125 15.4219 6.5 14.9844 7.15625 14.5156C7.84375 14.0156 8.4375 13.4688 8.9375 12.875C9.4375 12.2812 9.6875 11.6406 9.6875 10.9531C9.6875 10.0156 9.60938 9.17188 9.45312 8.42188C9.32812 7.64062 9.17188 6.96875 8.98438 6.40625C8.79688 5.84375 8.59375 5.40625 8.375 5.09375C8.1875 4.75 8.04688 4.54688 7.95312 4.48438C7.85938 4.39062 7.6875 4.35938 7.4375 4.39062C7.1875 4.39062 6.92188 4.42187 6.64062 4.48438C6.35938 4.51562 6.09375 4.57812 5.84375 4.67188C5.625 4.73438 5.5 4.78125 5.46875 4.8125C5.40625 4.875 5.34375 5.26562 5.28125 5.98438C5.21875 6.67188 5.125 7.4375 5 8.28125C4.90625 9.125 4.79688 9.90625 4.67188 10.625C4.54688 11.3438 4.39062 11.75 4.20312 11.8438C3.82812 12.0312 3.40625 11.8906 2.9375 11.4219C2.5 10.9219 2.09375 10.3281 1.71875 9.64062C1.53125 9.29688 1.34375 8.84375 1.15625 8.28125C1 7.71875 0.859375 7.15625 0.734375 6.59375C0.640625 6 0.5625 5.45312 0.5 4.95312C0.4375 4.45313 0.4375 4.0625 0.5 3.78125C0.53125 3.53125 0.921875 3.20312 1.67188 2.79688C2.42188 2.35937 3.375 1.95312 4.53125 1.57812C5.6875 1.17188 6.96875 0.84375 8.375 0.59375C9.78125 0.34375 11.1562 0.25 12.5 0.3125C12.9375 0.34375 13.3125 0.59375 13.625 1.0625C13.9688 1.53125 14.2344 2.14062 14.4219 2.89062C14.6406 3.60938 14.7969 4.4375 14.8906 5.375C15.0156 6.3125 15.0781 7.26562 15.0781 8.23438C15.0156 9.29688 14.7656 10.375 14.3281 11.4688C13.9531 12.4062 13.3438 13.4375 12.5 14.5625C11.6875 15.6875 10.5312 16.7812 9.03125 17.8438C10.7188 18.0625 12 18.4844 12.875 19.1094C13.75 19.7344 14.3906 20.4062 14.7969 21.125C15.2656 21.9375 15.5 22.8438 15.5 23.8438C15.4375 24.8125 15.2812 25.8281 15.0312 26.8906C14.7812 27.9219 14.5 28.8906 14.1875 29.7969C13.875 30.7031 13.5625 31.4844 13.25 32.1406C12.9375 32.7969 12.7188 33.1875 12.5938 33.3125C12.4688 33.4688 12.0938 33.7031 11.4688 34.0156C10.875 34.3281 10.1875 34.6406 9.40625 34.9531C8.65625 35.2656 7.90625 35.5312 7.15625 35.75C6.40625 36 5.84375 36.1406 5.46875 36.1719C5.09375 36.1719 4.6875 35.9375 4.25 35.4688C3.8125 35.0312 3.40625 34.4688 3.03125 33.7812C2.6875 33.0938 2.375 32.375 2.09375 31.625C1.84375 30.875 1.70312 30.2188 1.67188 29.6562C1.60938 29.0938 1.5625 28.5469 1.53125 28.0156C1.53125 27.4531 1.54688 26.9688 1.57812 26.5625C1.64062 26.1562 1.73438 25.8281 1.85938 25.5781C1.98438 25.3281 2.17188 25.2031 2.42188 25.2031C2.60938 25.2031 2.82812 25.2969 3.07812 25.4844C3.35938 25.6719 3.64062 25.9062 3.92188 26.1875C4.20312 26.4688 4.46875 26.7656 4.71875 27.0781C5 27.3906 5.23438 27.6875 5.42188 27.9688C5.51562 28.1562 5.67188 28.5 5.89062 29C6.10938 29.4688 6.34375 29.9531 6.59375 30.4531C6.84375 30.9219 7.09375 31.3438 7.34375 31.7188C7.625 32.0938 7.89062 32.2812 8.14062 32.2812C8.35938 32.2812 8.5625 32.0938 8.75 31.7188C8.9375 31.3438 9.09375 30.875 9.21875 30.3125C9.34375 29.7188 9.45312 29.0781 9.54688 28.3906C9.64062 27.6719 9.70312 26.9688 9.73438 26.2812C9.76562 25.7812 9.79688 25.375 9.82812 25.0625C9.85938 24.7188 9.85938 24.4219 9.82812 24.1719C9.82812 23.9219 9.78125 23.7031 9.6875 23.5156C9.625 23.3281 9.53125 23.1094 9.40625 22.8594ZM23.7969 14.8438C23.8594 15 23.8906 15.5 23.8906 16.3438C23.9219 17.1562 23.9219 18.1562 23.8906 19.3438C23.8906 20.5 23.8594 21.75 23.7969 23.0938C23.7344 24.4062 23.6562 25.6562 23.5625 26.8438C23.5 28 23.4219 29 23.3281 29.8438C23.2344 30.6562 23.1406 31.1406 23.0469 31.2969C22.7656 31.7344 22.3438 32.0156 21.7812 32.1406C21.2188 32.2344 20.8125 32.25 20.5625 32.1875C20.4375 32.1875 20.2969 31.8281 20.1406 31.1094C20.0156 30.3906 19.8906 29.4844 19.7656 28.3906C19.6406 27.2969 19.5312 26.1094 19.4375 24.8281C19.3438 23.5469 19.2656 22.3281 19.2031 21.1719C19.1406 19.9844 19.1094 18.9531 19.1094 18.0781C19.1094 17.2031 19.1406 16.6406 19.2031 16.3906C19.2969 15.9844 19.5625 15.625 20 15.3125C20.4688 15 20.9531 14.7656 21.4531 14.6094C21.9844 14.4531 22.4688 14.3906 22.9062 14.4219C23.375 14.4219 23.6719 14.5625 23.7969 14.8438ZM24.0312 7.25C24.1562 7.5 24.2031 7.84375 24.1719 8.28125C24.1719 8.71875 24.125 9.17188 24.0312 9.64062C23.9375 10.1094 23.8125 10.5625 23.6562 11C23.5 11.4375 23.3438 11.7812 23.1875 12.0312C22.875 12.4688 22.4062 12.75 21.7812 12.875C21.1875 12.9688 20.75 12.9844 20.4688 12.9219C20.25 12.8906 20.0312 12.75 19.8125 12.5C19.5938 12.2188 19.4062 11.8906 19.25 11.5156C19.0938 11.1094 18.9844 10.6719 18.9219 10.2031C18.8594 9.73438 18.875 9.29688 18.9688 8.89062C19.0625 8.48438 19.3594 8.125 19.8594 7.8125C20.3594 7.46875 20.8906 7.21875 21.4531 7.0625C22.0156 6.875 22.5469 6.79688 23.0469 6.82812C23.5469 6.82812 23.875 6.96875 24.0312 7.25ZM33.4062 7.76562C33.8438 8.60938 34.2344 9.76562 34.5781 11.2344C35.0156 12.8281 35.5 14.7031 36.0312 16.8594C36.4688 18.7344 36.9844 20.9844 37.5781 23.6094C38.2031 26.2344 38.8594 29.25 39.5469 32.6562C39.5469 32.875 39.4062 33.1562 39.125 33.5C38.875 33.8125 38.5625 34.125 38.1875 34.4375C37.8125 34.7188 37.4219 34.9688 37.0156 35.1875C36.6094 35.375 36.25 35.4688 35.9375 35.4688C35.8125 35.2812 35.5938 34.4531 35.2812 32.9844C35.1562 32.3594 35 31.5781 34.8125 30.6406C34.6562 29.6719 34.4688 28.4844 34.25 27.0781C34.0312 25.6719 33.7812 24.0312 33.5 22.1562C33.25 20.2812 32.9531 18.0938 32.6094 15.5938C32.3594 17.2812 32.1094 18.875 31.8594 20.375C31.6406 21.7812 31.4375 23.1094 31.25 24.3594C31.0625 25.4219 30.8594 26.6719 30.6406 28.1094C30.5469 28.8281 30.4375 29.5938 30.3125 30.4062C30.1875 31.1875 30.0469 31.9062 29.8906 32.5625C29.7656 33.2188 29.6094 33.7812 29.4219 34.25C29.2656 34.6875 29.0938 34.9062 28.9062 34.9062C28.7188 34.9062 28.4375 34.875 28.0625 34.8125C27.6875 34.7188 27.3125 34.6094 26.9375 34.4844C26.5312 34.3594 26.1719 34.2188 25.8594 34.0625C25.5469 33.875 25.3906 33.6875 25.3906 33.5C25.3906 33.4062 25.4844 32.9531 25.6719 32.1406C25.8594 31.2969 26.1094 30.2344 26.4219 28.9531C26.7344 27.6406 27.0938 26.2031 27.5 24.6406C27.8438 23.2969 28.25 21.6562 28.7188 19.7188C29.1562 18.0625 29.5938 16.4375 30.0312 14.8438C30.4688 13.2188 30.8594 11.8125 31.2031 10.625C31.5781 9.375 31.8906 8.375 32.1406 7.625C32.3906 6.84375 32.5625 6.45312 32.6562 6.45312C32.75 6.45312 33 6.89062 33.4062 7.76562ZM47.0469 7.76562C47.4844 8.60938 47.875 9.76562 48.2188 11.2344C48.6562 12.8281 49.1406 14.7031 49.6719 16.8594C50.1094 18.7344 50.625 20.9844 51.2188 23.6094C51.8438 26.2344 52.5 29.25 53.1875 32.6562C53.1875 32.875 53.0469 33.1562 52.7656 33.5C52.5156 33.8125 52.2031 34.125 51.8281 34.4375C51.4531 34.7188 51.0625 34.9688 50.6562 35.1875C50.25 35.375 49.8906 35.4688 49.5781 35.4688C49.4531 35.2812 49.2344 34.4531 48.9219 32.9844C48.7969 32.3594 48.6406 31.5781 48.4531 30.6406C48.2969 29.6719 48.1094 28.4844 47.8906 27.0781C47.6719 25.6719 47.4219 24.0312 47.1406 22.1562C46.8906 20.2812 46.5938 18.0938 46.25 15.5938C46 17.2812 45.75 18.875 45.5 20.375C45.2812 21.7812 45.0781 23.1094 44.8906 24.3594C44.7031 25.4219 44.5 26.6719 44.2812 28.1094C44.1875 28.8281 44.0781 29.5938 43.9531 30.4062C43.8281 31.1875 43.6875 31.9062 43.5312 32.5625C43.4062 33.2188 43.25 33.7812 43.0625 34.25C42.9062 34.6875 42.7344 34.9062 42.5469 34.9062C42.3594 34.9062 42.0781 34.875 41.7031 34.8125C41.3281 34.7188 40.9531 34.6094 40.5781 34.4844C40.1719 34.3594 39.8125 34.2188 39.5 34.0625C39.1875 33.875 39.0312 33.6875 39.0312 33.5C39.0312 33.4062 39.125 32.9531 39.3125 32.1406C39.5 31.2969 39.75 30.2344 40.0625 28.9531C40.375 27.6406 40.7344 26.2031 41.1406 24.6406C41.4844 23.2969 41.8906 21.6562 42.3594 19.7188C42.7969 18.0625 43.2344 16.4375 43.6719 14.8438C44.1094 13.2188 44.5 11.8125 44.8438 10.625C45.2188 9.375 45.5312 8.375 45.7812 7.625C46.0312 6.84375 46.2031 6.45312 46.2969 6.45312C46.3906 6.45312 46.6406 6.89062 47.0469 7.76562ZM58.8594 12.4531C58.9219 12.7031 59.0781 13.0312 59.3281 13.4375C59.6719 13.875 60.0625 14.3281 60.5 14.7969C60.9062 15.2344 61.3281 15.625 61.7656 15.9688C61.9531 16.125 62.1094 16.25 62.2344 16.3438L62.1875 11.0469C61.8438 11.1406 61.4844 11.25 61.1094 11.375C60.6094 11.5312 60.1875 11.6875 59.8438 11.8438C59.5 12 59.25 12.1562 59.0938 12.3125L58.9062 12.4062L58.8594 12.4531ZM68.4688 6.21875C68.6875 6.34375 68.875 6.625 69.0312 7.0625C69.1562 7.4375 69.2188 7.8125 69.2188 8.1875L69.1719 9.21875C69.1094 9.625 69.0312 9.90625 68.9375 10.0625C68.875 10.1562 68.7969 10.2344 68.7031 10.2969L68.3281 10.3906C68.1719 10.4219 67.9531 10.4375 67.6719 10.4375L67.1562 10.4844C67.125 11.1406 67.0938 11.8281 67.0625 12.5469C66.9688 14.1406 66.8594 15.8438 66.7344 17.6562C66.6094 19.4375 66.4844 21.125 66.3594 22.7188C66.2031 24.3438 66.0625 25.7031 65.9375 26.7969C65.8125 27.9219 65.6875 28.5938 65.5625 28.8125C65.2812 29.375 64.8438 29.7344 64.25 29.8906C63.6875 30.0156 63.2812 30.0312 63.0312 29.9375C62.9062 29.9062 62.7969 29.4062 62.7031 28.4375C62.6094 27.4375 62.5312 26.2031 62.4688 24.7344C62.4062 23.3594 62.3594 21.8906 62.3281 20.3281C61.5781 21.4219 61.0156 22.25 60.6406 22.8125C60.2969 23.3438 59.6094 24.2656 58.5781 25.5781L57.9688 26.2812L57.7344 26.6562L57.4531 26.9375C57.1094 27.4062 56.9062 27.6875 56.8438 27.7812C56.4062 28.3438 56 28.875 55.625 29.375C55.1875 29.9062 54.8125 30.2969 54.5 30.5469C54.1875 30.8281 54 30.8594 53.9375 30.6406C53.875 30.3281 53.875 29.9219 53.9375 29.4219C53.9688 28.9219 54.0469 28.3906 54.1719 27.8281C54.2656 27.2969 54.3906 26.7812 54.5469 26.2812C54.7031 25.8125 54.8594 25.4219 55.0156 25.1094C55.1719 24.7969 55.4531 24.2969 55.8594 23.6094C56.1094 23.2031 57.3594 21.2656 59.6094 17.7969L59.6562 17.7031L59.5156 17.6094H59.5625C58.9688 17.2656 58.4062 16.9531 57.875 16.6719C57.2812 16.3594 56.75 16.0469 56.2812 15.7344C55.7188 15.3906 55.3906 15.1406 55.2969 14.9844C55.1406 14.7656 55.0625 14.375 55.0625 13.8125C55.0312 13.2812 55.0469 12.7344 55.1094 12.1719C55.1719 11.5781 55.25 11.0469 55.3438 10.5781C55.4062 10.2656 55.4688 10.0156 55.5312 9.82812C55.5938 9.70312 55.6562 9.60938 55.7188 9.54688C56.0312 9.23438 56.5 8.9375 57.125 8.65625C57.75 8.375 58.4062 8.10938 59.0938 7.85938C59.7812 7.64062 60.4062 7.45312 60.9688 7.29688C61.5312 7.10938 61.9219 7 62.1406 6.96875H62.1875C62.3438 6.9375 62.5625 6.89062 62.8438 6.82812L63.7344 6.6875C64.0781 6.4375 64.4531 6.23438 64.8594 6.07812C65.3906 5.89062 65.875 5.8125 66.3125 5.84375C66.6562 5.875 66.8906 6 67.0156 6.21875C67.2969 6.1875 67.5469 6.15625 67.7656 6.125C68.1094 6.125 68.3438 6.14062 68.4688 6.17188V6.21875Z" fill="white"/>
</svg>
