<svg width="223" height="45" viewBox="0 0 223 45" fill="none" xmlns="http://www.w3.org/2000/svg">
<path d="M26.9811 29.5894V31.1626C25.701 35.8394 20.3806 40.0228 13.5871 40.0228C5.76378 40.03 0 35.0099 0 27.1294C0 19.2489 5.76378 14.2289 13.5942 14.2289C20.0946 14.2289 25.7082 18.3622 26.9882 23.089V24.6623H18.3211C17.5345 22.9889 15.8111 22.0021 13.5942 22.0021C10.4406 22.0021 8.37392 23.9186 8.37392 27.1223C8.37392 30.3259 10.4406 32.2424 13.5942 32.2424C15.8111 32.2424 17.5345 31.2556 18.3211 29.5822H26.9882L26.9811 29.5894Z" fill="#A9C600"/>
<path d="M32.3945 4.9682H40.6683V17.3753C42.4919 15.4088 45.052 14.2217 48.0054 14.2217C55.5354 14.2217 58.0026 19.8854 58.0026 26.6789V39.4293H49.7288V26.7719C49.7288 24.0616 48.1055 21.9949 45.4953 21.9949C42.5419 21.9949 40.7685 23.8185 40.6683 26.872V39.4293H32.3945V4.9682Z" fill="#A9C600"/>
<path d="M72.0757 27.4727C72.0757 30.1829 73.699 32.2496 76.3091 32.2496C79.3126 32.2496 81.1361 30.3331 81.1361 27.1294V14.8152H89.4099V39.4364H81.1361V36.8764C79.2625 38.893 76.7525 40.03 73.7991 40.03C66.2619 40.03 63.8019 34.3663 63.8019 27.5728V14.8152H72.0757V27.4727Z" fill="#A9C600"/>
<path d="M121.411 39.4364H113.137V37.1195C111.221 38.9931 108.704 40.0228 105.8 40.0228C99.4501 40.0228 94.8162 35.0028 94.8162 27.1223C94.8162 19.2418 99.4429 14.2217 105.8 14.2217C108.704 14.2217 111.214 15.3087 113.137 17.1751V4.9682H121.411V39.4364ZM103.19 27.1294C103.19 30.3331 105.207 32.2496 108.31 32.2496C111.414 32.2496 113.43 30.3331 113.43 27.1294C113.43 23.9257 111.414 22.0092 108.31 22.0092C105.207 22.0092 103.19 23.9257 103.19 27.1294Z" fill="#A9C600"/>
<path d="M126.817 27.1294C126.817 19.2489 132.581 14.2289 140.412 14.2289C148.242 14.2289 154.006 19.2489 154.006 27.1294C154.006 35.0099 148.242 40.03 140.412 40.03C132.581 40.03 126.817 35.0099 126.817 27.1294ZM135.191 27.1294C135.191 30.3331 137.258 32.2496 140.412 32.2496C143.565 32.2496 145.632 30.3331 145.632 27.1294C145.632 23.9257 143.565 22.0092 140.412 22.0092C137.258 22.0092 135.191 23.9257 135.191 27.1294Z" fill="#A9C600"/>
<path d="M195.096 27.1294C195.096 19.2489 200.86 14.2289 208.69 14.2289C216.521 14.2289 222.284 19.2489 222.284 27.1294C222.284 35.0099 216.521 40.03 208.69 40.03C200.86 40.03 195.096 35.0099 195.096 27.1294ZM203.47 27.1294C203.47 30.3331 205.537 32.2496 208.69 32.2496C211.844 32.2496 213.911 30.3331 213.911 27.1294C213.911 23.9257 211.844 22.0092 208.69 22.0092C205.537 22.0092 203.47 23.9257 203.47 27.1294Z" fill="#A9C600"/>
<path d="M162.315 42.0538C162.966 36.5832 163.61 31.1197 164.26 25.6492C164.797 21.1225 165.147 16.1954 167.335 12.105C168.808 9.35898 171.118 6.88471 174.25 6.13384C177.261 5.41158 181.316 6.1553 183.061 8.95852C185.399 12.6985 183.211 17.6471 181.502 21.1297C180.422 23.3322 179.142 26.0925 176.045 26.164C175.216 26.1855 173.728 25.8279 173.449 24.4478C173.221 23.2822 173.714 22.4169 174.458 21.8376C177.039 19.8353 181.373 20.5361 183.297 23.4466C185.563 26.8863 186.55 32.7359 183.347 35.8681C180.779 38.3852 176.839 39.2362 173.457 38.5354C169.76 37.7631 168.172 43.4411 171.891 44.2205C177.097 45.3075 182.474 44.2134 186.622 40.8166C191.649 36.7047 192.085 29.9899 190.09 24.1689C187.93 17.8759 182.574 13.8499 175.774 15.087C170.754 16.0023 166.749 20.1643 167.671 25.4775C168.68 31.2771 175.38 33.4009 180.272 31.0911C184.948 28.8815 187.308 23.4109 188.896 18.8199C190.905 13.0203 189.976 5.8478 184.534 2.29371C179.835 -0.774105 173.206 -0.745501 168.494 2.26511C163.416 5.5117 160.756 11.111 159.598 16.8462C157.932 25.1057 157.41 33.6941 156.416 42.0538C156.23 43.6341 157.903 45 159.362 45C161.107 45 162.122 43.6413 162.308 42.0538H162.315Z" fill="#FF545B"/>
</svg>
